<svg width="562" height="188" viewBox="0 0 562 188" fill="none" xmlns="http://www.w3.org/2000/svg">
<g filter="url(#filter0_d_32_24)">
<path d="M240.18 12.0207C246.264 12.6447 254.745 13.5848 264.849 14.9742C275.944 16.4967 286.14 17.8944 297.725 20.3155C313.273 23.5685 324.992 26.0145 338.7 32.1712C347.156 35.965 359.391 42.5376 372.517 53.944C372.517 53.944 358.343 37.6705 336.17 25.6651C324.143 19.1507 314.13 16.0225 303.011 12.5448C278.94 5.01544 259.689 2.61103 255.07 2.06193C240.604 0.348057 215.152 -2.44738 183.2 4.26667C179.238 5.09864 174.527 6.21349 168.426 7.9856C153.17 12.4117 126.486 23.2108 110.647 42.7705C104.114 45.6159 98.8866 48.3947 95.0996 50.5662C89.107 53.9939 87.1844 55.6329 85.578 57.7461C83.2725 60.7828 82.5234 63.6282 81.3332 68.6617C80.0432 74.1361 78.57 80.7752 77.0884 88.4211C81.1668 80.484 88.2248 69.7432 100.26 61.7978C114.667 52.2884 129.416 51.2817 169.491 52.1136C190.066 52.5379 213.454 53.3699 239.239 54.8841C224.848 52.2218 209.284 49.9505 192.646 48.3614C165.338 45.7657 140.286 45.4994 118.096 46.4978C122.399 41.8221 128.817 35.6987 137.647 29.9747C147.951 23.294 156.857 20.1824 163.815 17.8112C179.329 12.5116 191.623 11.3468 194.236 11.1222C199.921 10.623 211.132 9.64123 220.404 11.7295C246.372 17.57 259.739 48.0702 262.552 54.8841C275.544 56.1071 294.18 57.8959 316.735 60.2005C350.494 63.6532 364.269 65.3254 382.022 71.4987C393.266 75.409 402.122 79.7353 407.932 82.8302C408.764 81.965 410.162 80.7004 412.16 79.6604C415.847 77.7385 419.376 77.7552 420.949 77.7801C444.545 78.1795 463.638 81.549 463.638 81.549C469.298 82.5473 478.054 84.0283 489.015 85.634C463.322 77.2892 429.422 67.6134 391.452 60.8411C372.342 57.43 354.081 55.0006 336.836 53.3117C326.107 52.6128 311.525 51.6727 300.797 50.9821C291.758 50.3998 277.45 49.4929 268.412 48.9188C268.412 48.9188 254.603 27.587 240.196 12.0456L240.18 12.0207Z" fill="black"/>
<path d="M493.809 115.286C493.843 110.934 493.31 100.152 485.753 94.0452C482.249 91.2165 476.888 90.4345 466.318 88.9868C458.012 87.8553 458.087 88.496 441.216 87.4726C428.739 86.7155 425.152 86.1498 423.304 88.6124C420.275 92.6558 424.936 100.793 425.593 101.949C434.191 116.958 454.757 120.011 461.416 120.993C467.508 121.9 477.729 122.607 490.38 119.47C484.579 121.575 474.616 124.362 462.182 123.664C455.498 123.289 442.647 122.557 430.92 113.763C421.207 106.475 410.612 92.4063 414.548 85.4592C417.12 80.9333 426.967 81.524 446.551 82.8968C482.998 85.4426 488.158 91.4495 489.814 93.6709C491.837 96.3997 495.591 102.881 493.809 115.277V115.286Z" fill="black"/>
<path d="M416.538 105.61C413.974 100.127 409.055 91.6159 399.975 84.6439C391.785 78.3458 383.795 76.0579 377.952 74.5187C348.022 66.6482 322.004 64.6681 322.004 64.6681C265.648 60.3918 281.479 60.7995 259.864 59.6596C245.407 58.8942 242.185 58.9109 171.04 57.7627C131.505 57.1221 118.371 56.8892 104.064 66.2655C90.78 74.968 83.4806 87.3728 79.4606 96.225C81.0253 95.6925 83.3474 94.8023 85.9859 93.363C92.5029 89.8022 94.3589 86.4659 99.2779 83.2711C99.2779 83.2711 105.279 79.3692 112.57 78.4873C121.784 77.3724 126.686 82.8219 135.958 86.4576C145.238 90.0933 152.213 89.4694 165.197 89.1116C190.174 88.4211 215.16 89.8105 240.146 89.6441C266.872 89.4694 269.094 89.486 274.695 88.5791C300.247 84.4775 302.353 76.4323 315.628 78.4873C333.556 81.2577 334.056 96.6077 359.217 103.463C366.374 105.41 372.833 105.942 381.539 106.65C394.781 107.731 405.876 107.265 413.708 106.6C408.498 105.726 401.065 104.378 392.176 102.398C371.734 97.8474 366.324 95.0103 362.413 92.3064C354.597 86.9069 347.331 78.2959 349.121 75.3008C350.627 72.7799 358.293 74.6851 367.19 76.8982C372.808 78.2959 379.25 79.8933 387.39 83.8036C400.516 90.11 410.096 98.5961 416.546 105.618L416.538 105.61Z" fill="black"/>
<path d="M329.878 94.1617H306.656L299.914 106.142L306.656 119.62H328.379C327.223 121.442 323.177 127.349 315.645 129.354C306.922 131.684 297.085 127.848 290.926 119.62H132.112C131.105 121.018 125.845 128.015 116.382 129.354C107.917 130.552 99.3111 126.784 93.9094 119.62H117.88C120.127 115.377 122.374 111.134 124.622 106.891L117.131 94.1617H93.9094C98.3207 86.7821 106.419 82.4392 114.884 82.93C127.227 83.6539 133.253 94.2616 133.611 94.9105C186.046 94.6609 238.49 94.4113 290.926 94.1617C291.417 93.4213 298.092 83.6788 310.402 83.6788C322.711 83.6788 329.387 93.4213 329.878 94.1617Z" fill="#F5534B"/>
<path d="M51.8878 175.604C47.5553 177.201 43.2051 178 38.8372 178C34.4692 178 31.3086 177.13 29.3555 175.391C27.4378 173.652 26.479 170.971 26.479 167.351C26.479 165.824 26.7276 163.57 27.2248 160.588C28.2901 154.412 30.1723 149.957 32.8712 147.224C35.5701 144.49 40.0446 143.124 46.2947 143.124C47.6441 143.124 49.3309 143.266 51.3551 143.55C53.3793 143.833 54.8708 144.153 55.8296 144.508L52.8999 152.655C50.2365 152.158 47.7862 151.909 45.5489 151.909C43.3472 151.909 41.7669 152.087 40.8081 152.442C39.8493 152.797 39.2811 153.507 39.1035 154.572L36.4934 169.64H39.8493C41.0567 169.64 41.9445 169.516 42.5126 169.268C43.1163 168.984 43.507 168.362 43.6845 167.404L43.9509 165.966H41.394L42.8322 157.82H55.0306L51.8878 175.604ZM25.7333 160.322C25.6623 160.606 25.5912 160.997 25.5202 161.494L4.58595 159.257H25.8931L25.7333 160.322ZM25.1473 164.369C25.0408 165.185 24.9875 165.931 24.9875 166.605L4 164.369H25.1473ZM27.1715 154.146L26.5323 156.329L5.86437 154.146H27.1715ZM25.0408 169.481C25.1828 170.474 25.3071 171.22 25.4137 171.717L4.69248 169.481H25.0408ZM29.3555 149.034C28.8583 149.957 28.5032 150.667 28.2901 151.164L8.36796 149.034H29.3555ZM26.6388 174.645C27.1005 175.462 27.6332 176.119 28.2369 176.616L9.80619 174.645H26.6388ZM34.4159 143.922C33.3861 144.561 32.5871 145.147 32.0189 145.679L15.7189 143.922H34.4159Z" fill="black"/>
<path d="M84.3599 177.201L84.1469 172.888H77.4351L75.7838 177.201H66.5685L78.3939 149.034H91.6044L93.6818 177.201H84.3599ZM84.1469 165.274V157.181H83.4011L80.2583 165.274H84.1469ZM64.8639 176.988L43.0241 174.645H65.876L64.8639 176.988ZM67.0479 171.823L45.2081 169.481H68.06L67.0479 171.823ZM69.2319 166.712L47.3921 164.369H70.1907L69.2319 166.712ZM71.3626 161.6L49.576 159.257H72.3747L71.3626 161.6ZM73.5466 156.488L51.76 154.146H74.5054L73.5466 156.488ZM75.6773 151.324L53.944 149.034H76.6361L75.6773 151.324Z" fill="black"/>
<path d="M126.005 149.034C131.19 149.034 133.782 151.377 133.782 156.062C133.782 158.192 133.356 160.411 132.504 162.718C131.652 164.99 130.214 166.694 128.189 167.83L131.226 177.201H121.265L119.24 169.001H117.962L116.524 177.201H107.575L112.475 149.034H126.005ZM124.034 158.246C124.034 158.21 124.052 158.033 124.088 157.713C124.088 157.11 123.147 156.808 121.265 156.808H120.093L119.24 161.707H120.945C122.578 161.707 123.502 161.174 123.715 160.109L124.034 158.246ZM105.817 177.042L83.2313 174.645H106.243L105.817 177.042ZM107.628 166.765L85.0424 164.369H108.054L107.628 166.765ZM108.534 161.653L85.948 159.257H108.96L108.534 161.653ZM109.439 156.542L86.8535 154.146H109.865L109.439 156.542ZM110.345 151.43L87.7591 149.034H110.718L110.345 151.43ZM106.722 171.877L84.1369 169.481H107.149L106.722 171.877Z" fill="black"/>
<path d="M163.117 177.201L162.904 172.888H156.192L154.541 177.201H145.326L157.151 149.034H170.362L172.439 177.201H163.117ZM162.904 165.274V157.181H162.158L159.016 165.274H162.904ZM143.621 176.988L121.781 174.645H144.633L143.621 176.988ZM145.805 171.823L123.965 169.481H146.817L145.805 171.823ZM147.989 166.712L126.149 164.369H148.948L147.989 166.712ZM150.12 161.6L128.333 159.257H151.132L150.12 161.6ZM152.304 156.488L130.517 154.146H153.263L152.304 156.488ZM154.435 151.324L132.701 149.034H155.393L154.435 151.324Z" fill="black"/>
<path d="M207.692 175.71C204.07 177.13 200.377 177.84 196.613 177.84C192.848 177.84 190.167 177.113 188.569 175.657C186.971 174.166 186.172 171.877 186.172 168.788C186.172 167.262 186.421 165.079 186.918 162.239C187.415 159.399 188.179 156.968 189.208 154.944C191.446 150.649 195.974 148.501 202.792 148.501C206.769 148.501 209.539 148.892 211.102 149.673L208.385 157.074C206.148 156.577 204.123 156.329 202.312 156.329C200.537 156.329 199.276 156.453 198.53 156.701C197.785 156.95 197.341 157.429 197.199 158.139L194.961 170.386H197.412C198.3 170.386 198.974 170.297 199.436 170.12C199.933 169.907 200.235 169.463 200.341 168.788L200.714 166.712H198.53L199.596 160.642H210.356L207.692 175.71ZM184.894 164.369C184.752 165.469 184.663 166.215 184.627 166.605L163.64 164.369H184.894ZM185.906 159.257L185.426 161.494L164.599 159.257H185.906ZM184.574 169.481C184.574 170.049 184.645 170.794 184.787 171.717L163.853 169.481H184.574ZM187.77 154.146C187.344 155.069 187.042 155.778 186.865 156.275L166.729 154.146H187.77ZM185.693 174.645C186.119 175.497 186.581 176.154 187.078 176.616L168.487 174.645H185.693ZM192.405 149.034C191.552 149.531 190.824 150.117 190.221 150.791L173.867 149.034H192.405Z" fill="black"/>
<path d="M242.332 165.753H234.395L233.756 169.374H243.61L242.225 177.201H223.422L228.322 149.034H247.073L244.569 157.021H235.887L235.247 160.642H243.237L242.332 165.753ZM221.664 177.042L199.078 174.645H222.09L221.664 177.042ZM223.475 166.765L200.89 164.369H223.901L223.475 166.765ZM224.381 161.653L201.795 159.257H224.807L224.381 161.653ZM225.286 156.542L202.701 154.146H225.712L225.286 156.542ZM226.192 151.43L203.606 149.034H226.565L226.192 151.43ZM222.57 171.877L199.984 169.481H222.996L222.57 171.877Z" fill="black"/>
<path d="M250.399 174.645H272.825L272.985 177.042L250.399 174.645ZM250.079 169.481H272.505L272.665 171.877L250.079 169.481ZM248.854 149.034H271.28L271.44 151.43L248.854 149.034ZM249.174 154.146H271.6L271.706 156.542L249.174 154.146ZM248.588 143.922H271.014L271.12 146.318L248.588 143.922ZM249.494 159.257H271.866L272.026 161.653L249.494 159.257ZM249.813 164.369H272.186L272.345 166.765L249.813 164.369ZM283.851 143.922V165.061H284.331L292.374 143.922H303.081L289.391 177.201H274.583L272.612 143.922H283.851Z" fill="black"/>
<path d="M302.639 169.481C302.426 170.191 302.266 170.989 302.159 171.877L290.334 169.481H302.639ZM302.532 177.042L290.6 174.645H301.946C302.017 175.675 302.212 176.474 302.532 177.042ZM303.757 171.93C304.112 169.836 304.734 168.362 305.622 167.51C306.545 166.658 307.983 166.233 309.936 166.233C311.925 166.233 313.257 166.499 313.931 167.031C314.642 167.564 314.997 168.327 314.997 169.321C314.997 170.315 314.926 171.184 314.784 171.93C314.429 174.024 313.789 175.48 312.866 176.296C311.978 177.113 310.54 177.521 308.551 177.521C306.598 177.521 305.266 177.272 304.556 176.775C303.882 176.243 303.544 175.497 303.544 174.539C303.544 173.545 303.615 172.675 303.757 171.93Z" fill="black"/>
<path d="M355.767 169.161H349.162L347.777 177.201H337.656L343.516 143.922H359.496C365.533 143.922 368.552 146.727 368.552 152.335C368.552 154.998 368.179 157.411 367.433 159.577C366.687 161.707 365.853 163.41 364.93 164.688C364.042 165.931 362.799 166.996 361.201 167.883C359.638 168.735 357.827 169.161 355.767 169.161ZM352.998 160.642C354.205 160.642 355.11 160.517 355.714 160.269C356.353 159.985 356.762 159.364 356.939 158.405C357.401 155.778 357.632 154.341 357.632 154.092C357.632 153.418 357.365 152.974 356.833 152.761C356.3 152.548 355.501 152.442 354.436 152.442H352.092L350.654 160.642H352.998ZM336.058 177.042L313.473 174.645H336.484L336.058 177.042ZM337.869 166.765L315.284 164.369H338.296L337.869 166.765ZM339.627 156.542L317.095 154.146H340.053L339.627 156.542ZM340.533 151.43L318.001 149.034H340.959L340.533 151.43ZM336.964 171.877L314.378 169.481H337.39L336.964 171.877ZM341.438 146.318L318.906 143.922H341.865L341.438 146.318ZM338.722 161.653L316.189 159.257H339.148L338.722 161.653Z" fill="black"/>
<path d="M393.615 177.201L393.402 172.888H386.69L385.039 177.201H375.824L387.649 149.034H400.859L402.937 177.201H393.615ZM393.402 165.274V157.181H392.656L389.513 165.274H393.402ZM374.119 176.988L352.279 174.645H375.131L374.119 176.988ZM376.303 171.823L354.463 169.481H377.315L376.303 171.823ZM378.487 166.712L356.647 164.369H379.446L378.487 166.712ZM380.618 161.6L358.831 159.257H381.63L380.618 161.6ZM382.802 156.488L361.015 154.146H383.761L382.802 156.488ZM384.932 151.324L363.199 149.034H385.891L384.932 151.324Z" fill="black"/>
<path d="M435.261 149.034C440.445 149.034 443.038 151.377 443.038 156.062C443.038 158.192 442.611 160.411 441.759 162.718C440.907 164.99 439.469 166.694 437.445 167.83L440.481 177.201H430.52L428.495 169.001H427.217L425.779 177.201H416.83L421.73 149.034H435.261ZM433.29 158.246C433.29 158.21 433.307 158.033 433.343 157.713C433.343 157.11 432.402 156.808 430.52 156.808H429.348L428.495 161.707H430.2C431.834 161.707 432.757 161.174 432.97 160.109L433.29 158.246ZM415.072 177.042L392.486 174.645H415.498L415.072 177.042ZM416.883 166.765L394.298 164.369H417.309L416.883 166.765ZM417.789 161.653L395.203 159.257H418.215L417.789 161.653ZM418.694 156.542L396.109 154.146H419.12L418.694 156.542ZM419.6 151.43L397.014 149.034H419.973L419.6 151.43ZM415.978 171.877L393.392 169.481H416.404L415.978 171.877Z" fill="black"/>
<path d="M473.651 149.034C478.836 149.034 481.428 151.377 481.428 156.062C481.428 158.192 481.002 160.411 480.15 162.718C479.297 164.99 477.859 166.694 475.835 167.83L478.871 177.201H468.91L466.886 169.001H465.607L464.169 177.201H455.22L460.121 149.034H473.651ZM471.68 158.246C471.68 158.21 471.698 158.033 471.733 157.713C471.733 157.11 470.792 156.808 468.91 156.808H467.738L466.886 161.707H468.59C470.224 161.707 471.147 161.174 471.36 160.109L471.68 158.246ZM453.462 177.042L430.877 174.645H453.888L453.462 177.042ZM455.273 166.765L432.688 164.369H455.7L455.273 166.765ZM456.179 161.653L433.593 159.257H456.605L456.179 161.653ZM457.085 156.542L434.499 154.146H457.511L457.085 156.542ZM457.99 151.43L435.405 149.034H458.363L457.99 151.43ZM454.368 171.877L431.782 169.481H454.794L454.368 171.877Z" fill="black"/>
<path d="M509.857 148.501C513.692 148.501 516.427 149.247 518.06 150.738C519.694 152.193 520.511 154.483 520.511 157.607C520.511 159.133 520.315 160.979 519.925 163.144C519.037 168.256 517.474 171.983 515.237 174.326C513 176.669 509.484 177.84 504.69 177.84C500.926 177.84 498.245 177.113 496.647 175.657C495.049 174.166 494.25 171.877 494.25 168.788C494.25 167.191 494.445 165.31 494.836 163.144C495.723 158.033 497.268 154.323 499.47 152.016C501.672 149.673 505.134 148.501 509.857 148.501ZM506.235 169.747C507.265 169.747 508.028 169.623 508.525 169.374C509.058 169.126 509.413 168.575 509.591 167.723L511.615 156.595H508.366C507.371 156.595 506.59 156.719 506.022 156.968C505.489 157.216 505.17 157.749 505.063 158.565L503.092 169.747H506.235ZM492.971 164.369C492.829 165.469 492.74 166.215 492.705 166.605L471.717 164.369H492.971ZM493.983 159.257L493.504 161.494L472.676 159.257H493.983ZM492.652 169.481C492.652 170.049 492.723 170.794 492.865 171.717L471.93 169.481H492.652ZM495.848 154.146C495.422 155.069 495.12 155.778 494.942 156.275L474.807 154.146H495.848ZM493.77 174.645C494.196 175.497 494.658 176.154 495.155 176.616L476.565 174.645H493.77ZM500.482 149.034C499.63 149.531 498.902 150.117 498.298 150.791L481.945 149.034H500.482Z" fill="black"/>
<path d="M556.562 157.021H550.809L547.293 177.201H537.918L541.434 157.021H535.521L536.959 149.034H558L556.562 157.021ZM536.32 177.042L513.734 174.645H536.746L536.32 177.042ZM538.131 166.765L515.546 164.369H538.557L538.131 166.765ZM539.037 161.653L516.451 159.257H539.463L539.037 161.653ZM533.923 156.542L511.337 154.146H534.349L533.923 156.542ZM534.829 151.43L512.243 149.034H535.201L534.829 151.43ZM537.226 171.877L514.64 169.481H537.652L537.226 171.877Z" fill="black"/>
</g>
<defs>
<filter id="filter0_d_32_24" x="0" y="0" width="562" height="188" filterUnits="userSpaceOnUse" color-interpolation-filters="sRGB">
<feFlood flood-opacity="0" result="BackgroundImageFix"/>
<feColorMatrix in="SourceAlpha" type="matrix" values="0 0 0 0 0 0 0 0 0 0 0 0 0 0 0 0 0 0 127 0" result="hardAlpha"/>
<feOffset dy="6"/>
<feGaussianBlur stdDeviation="2"/>
<feComposite in2="hardAlpha" operator="out"/>
<feColorMatrix type="matrix" values="0 0 0 0 0 0 0 0 0 0 0 0 0 0 0 0 0 0 0.25 0"/>
<feBlend mode="normal" in2="BackgroundImageFix" result="effect1_dropShadow_32_24"/>
<feBlend mode="normal" in="SourceGraphic" in2="effect1_dropShadow_32_24" result="shape"/>
</filter>
</defs>
</svg>
