<?xml version="1.0" encoding="UTF-8"?><svg id="Layer_2" xmlns="http://www.w3.org/2000/svg" viewBox="0 0 162.96 162.64"><defs><style>.cls-1{stroke-width:0px;}</style></defs><g id="Layer_1-2"><path class="cls-1" d="m162.96,126.18c-.45,1.38-.9,2.75-1.32,4.03-16.4-16.26-32.7-32.41-49.03-48.6,16.42-16.26,32.76-32.43,49.12-48.63.34,1.03.79,2.41,1.23,3.79v89.41Z"/><path class="cls-1" d="m154.72,25.87c-2.45,2.4-4.77,4.62-7.04,6.9-20.48,20.53-40.96,41.07-61.44,61.61-2.87,2.88-6,2.89-8.85.02C54.97,71.92,32.55,49.43,10.14,26.94c-.33-.33-.64-.68-1.29-1.37,1.9-.42,3.49-.81,5.11-1.12.61-.12,1.26-.05,1.9-.05,43.95,0,87.91,0,131.86,0,2.33,0,4.59.24,7.01,1.46Z"/><path class="cls-1" d="m105.54,88.56c16.36,16.2,32.63,32.32,49.27,48.8-1.95.44-3.54.83-5.15,1.13-.67.12-1.37.05-2.06.05-43.89,0-87.78,0-131.68,0-2.35,0-4.61-.26-6.86-1.36,16.4-16.23,32.71-32.38,49.03-48.54,4.12,4.1,8.49,8.47,12.88,12.81,4.78,4.72,11.51,5.98,17.34,3.07,1.67-.83,3.2-2.06,4.55-3.36,3.95-3.81,7.78-7.76,11.66-11.65.4-.4.82-.78,1.01-.97Z"/><path class="cls-1" d="m2.01,32.78c16.36,16.21,32.66,32.37,48.98,48.55-16.42,16.27-32.76,32.45-49.08,48.61-.9-1.69-1.29-3.86-1.29-6.15.01-14.95,0-29.9,0-44.84,0-13.31,0-26.62,0-39.93,0-2.24.46-4.35,1.38-6.23Z"/></g></svg>