<?xml version="1.0" encoding="UTF-8"?><svg id="Layer_2" xmlns="http://www.w3.org/2000/svg" viewBox="0 0 147.35 147.35"><defs><style>.cls-1{stroke-width:0px;}</style></defs><g id="Layer_2-2"><path class="cls-1" d="m.29,26.14c.14-.34.3-.68.42-1.03,1.29-3.88,4.66-6.39,8.75-6.43,2.92-.03,5.84,0,8.76,0,39.77,0,79.54,0,119.3,0,4.99,0,8.64,2.79,9.61,7.34,1.16,5.45-2.89,10.73-8.46,11.02-.62.03-1.24.02-1.87.02-41.63,0-83.27-.05-124.9.06-5.78.02-9.82-1.82-11.61-7.53,0-1.15,0-2.3,0-3.45Z"/><path class="cls-1" d="m.29,72.09c.18-.43.37-.85.52-1.29,1.3-3.67,4.61-6.1,8.5-6.16,3.16-.05,6.32-.01,9.48-.01,39.58,0,79.15,0,118.73,0,4.99,0,8.64,2.8,9.61,7.34,1.16,5.45-2.89,10.73-8.46,11.02-.62.03-1.24.02-1.87.02-41.63,0-83.27-.05-124.9.06-5.78.02-9.82-1.82-11.61-7.53,0-1.15,0-2.3,0-3.45Z"/><path class="cls-1" d="m.29,118.05c.18-.43.37-.85.52-1.29,1.3-3.67,4.61-6.1,8.5-6.16,3.16-.05,6.32-.01,9.48-.01,39.58,0,79.15,0,118.73,0,4.99,0,8.64,2.8,9.61,7.34,1.16,5.45-2.89,10.73-8.46,11.02-.62.03-1.24.02-1.87.02-41.63,0-83.27-.05-124.9.06-5.78.02-9.82-1.82-11.61-7.53,0-1.15,0-2.3,0-3.45Z"/></g></svg>