<?xml version="1.0" encoding="UTF-8"?><svg id="Layer_2" xmlns="http://www.w3.org/2000/svg" viewBox="0 0 198.09 197.91"><defs><style>.cls-1{stroke-width:0px;}</style></defs><g id="Layer_1-2"><path class="cls-1" d="m41.66.39c3.91.85,7.67,2.04,10.8,4.69.44.37.9.72,1.31,1.13,8.87,8.86,17.77,17.68,26.58,26.6,6.54,6.63,7.68,15.74,3.07,23.31-2.08,3.42-5.01,5.82-8.77,7.17-5.44,1.96-9.64,5.29-11.98,10.7-1.56,3.61-1.78,7.29-.76,11.1,2.64,9.93,8.1,18.25,14.74,25.88,7.96,9.15,17.06,16.91,28.02,22.29,4.57,2.24,9.29,4.2,14.58,3.46,6.99-.97,12.32-4.37,15.07-11.05,1.8-4.38,3.99-8.3,8.24-10.79,6.91-4.04,15.61-3.52,21.53,1.87,5.41,4.93,10.49,10.23,15.66,15.42,4.72,4.73,9.61,9.32,14.01,14.33,5.55,6.33,5.71,16.23.81,23.09-1,1.4-2.13,2.74-3.34,3.97-5.19,5.26-10.56,10.36-15.64,15.73-5.42,5.73-12.12,8.23-19.79,8.55-8.21.35-16.08-1.48-23.78-4.09-15.17-5.13-28.85-13.1-41.8-22.36-21.48-15.35-40.29-33.53-56.5-54.35-11.94-15.32-22.16-31.68-28.47-50.2C2.51,58.79.65,50.54,1.09,41.92c.38-7.55,2.85-14.11,8.47-19.43,4.72-4.46,9.3-9.07,13.78-13.77C27.27,4.59,31.54,1.17,37.42.39h4.24Z"/></g></svg>